<?xml version="1.0"?>
<svg xmlns="http://www.w3.org/2000/svg" xmlns:xlink="http://www.w3.org/1999/xlink" xmlns:svgjs="http://svgjs.com/svgjs" version="1.1" width="512" height="512" x="0" y="0" viewBox="0 0 512 512" style="enable-background:new 0 0 512 512" xml:space="preserve"><g><g xmlns="http://www.w3.org/2000/svg" id="outline"><path d="M43.562,449.344a8,8,0,0,0,1.908,14.245l48,16a8,8,0,0,0,9.685-4.011l26.751-53.5L188.1,486.731A28.036,28.036,0,0,0,208.907,496H336c.86,0,20.7-6.468,20.7-6.468A31.69,31.69,0,0,0,376,496h16a32,32,0,0,0,0-64H376c-.357,0-.711.016-1.066.027l.973-6.806,7.563-45.377,22.187-22.187a8,8,0,0,0,1.5-9.235l-8-16a8,8,0,0,0-9.095-4.183l-7.421,1.855.8-5.574,20.858-14.9c.167.236.32.482.493.714l9.577,12.817a31.785,31.785,0,0,0,21.052,12.516,32.3,32.3,0,0,0,4.65.337,32.005,32.005,0,0,0,25.567-51.16l-9.576-12.818a32.137,32.137,0,0,0-13.685-10.5l5.052-40.423a17.879,17.879,0,0,0-3.652-13.284s-54.093-69.443-54.151-69.5c-.135-.134-87.909-40.509-87.909-40.509L262.993,28.115a8,8,0,0,0-11.109-2.975l-40,24a8,8,0,0,0-.322,13.516l21.175,14.116,7.184,39.513L172.3,73.25a8,8,0,0,0-9.095.35l-32,24a8,8,0,0,0,2.27,13.989l21.568,7.19,56.5,77.69A28.087,28.087,0,0,0,234.185,208h74.068l34.462,41.355-22.068,51.494A7.993,7.993,0,0,0,320,304v47.015L305.754,408H283.816l24.276-60.69a28.024,28.024,0,0,0-.953-22.921L272,254.111V232a8,8,0,0,0-10.971-7.428l-40,16a8,8,0,0,0-4.874,9l15.377,76.885-33.456,53.529-28.389-23.657A53.178,53.178,0,0,0,85.667,379L65.378,434.8Zm352.016,21.811A8,8,0,0,0,400,464V450.165A15.986,15.986,0,0,1,392,480H377.888ZM384,448v11.056l-13.921,6.96,2.522-17.652C373.708,448.125,384,448,384,448Zm3.714-102.683,2.552,5.1L378.192,362.5l-6.577-13.153Zm34.05-38.992-4.16-5.567c-.1-.141-.2-.288-.3-.431l9.764-6.974,1.154,4.021Zm22.911-9.628-4.667-16.261.236-1.886a16.089,16.089,0,0,1,2.995,3.054l9.577,12.818a15.992,15.992,0,0,1-19.967,23.883l10.623-14.72A8,8,0,0,0,444.675,296.7ZM289.007,107.885a8,8,0,0,0,3.682,3.4l48.451,22.023-82.584-5.162-.245-.156-7.37-40.536,22.54-7.513ZM230.956,56.356l22.067-13.241,12.552,22.594L248.05,71.551l-.179-.982a8,8,0,0,0-3.433-5.225Zm-58,59.852-6.482-8.914a8,8,0,0,0-3.94-2.883l-9.515-3.172L168.374,89.72l13.52,8.6ZM334.8,214.866l-16.657-19.988A8,8,0,0,0,312,192H234.185a12.037,12.037,0,0,1-9.706-4.942l-40.927-56.275,11.912-23.823,56.241,35.79a8,8,0,0,0,3.8,1.234l124.4,7.775,14.133,18.171Zm1.2,90.776,23.353-54.491a8,8,0,0,0-1.207-8.273l-13.089-15.707,58.8-44.61,27.286,35.082a1.989,1.989,0,0,1,.405,1.475l-7.051,56.41L371.35,313.49a8,8,0,0,0-3.269,5.379l-2.2,15.415L336,341.754ZM304,424v24a8,8,0,0,0,16,0V416.985L334.6,358.6l21.118-5.279,11.966,23.933-7.572,45.434c-.01.061-.02.122-.028.184l-7.3,51.1L334.7,480h-62.64l7-56ZM256,243.816V256a7.994,7.994,0,0,0,.845,3.578l2.651,5.3-22.82,5.7-3.526-17.628Zm-155.3,140.656a37.177,37.177,0,0,1,58.739-15.855l35.434,29.529a8,8,0,0,0,11.906-1.906l40-64a8,8,0,0,0,1.061-5.809l-8.028-40.139,26.123-6.531a8.06,8.06,0,0,0,.861-.271l26.027,52.054a12.017,12.017,0,0,1,.409,9.824s-29.157,73.52-29.167,73.6c0,.014-8.008,64.043-8.008,64.043a8.113,8.113,0,0,0-.056.992h-47.1a12.018,12.018,0,0,1-8.919-3.972l-66.042-73.38a8,8,0,0,0-13.1,1.774l-9.575,19.149-22.718-5.679ZM76.438,446.656a8.008,8.008,0,0,0,3.081-3.922l3.535-9.724,20.886,5.221L91.947,462.216l-25.9-8.633Z" fill="#a78d00" data-original="#000000" style=""/></g></g></svg>
