<?xml version="1.0"?>
<svg xmlns="http://www.w3.org/2000/svg" xmlns:xlink="http://www.w3.org/1999/xlink" xmlns:svgjs="http://svgjs.com/svgjs" version="1.1" width="512" height="512" x="0" y="0" viewBox="0 0 512 512" style="enable-background:new 0 0 512 512" xml:space="preserve" class=""><g><g xmlns="http://www.w3.org/2000/svg"><path d="m512 334.158c.044-11.342-7.883-20.885-18.502-23.325.026-1.172.016-2.35-.045-3.535-1.367-26.263-23.717-46.45-50.03-45.084l-9.86.513c-12.738.663-24.635 6.264-33.331 16.177-26.956-22.854-63.257-37.549-101.886-39.358-.093-.004-.186-.007-.278-.008l-48.981-.473-73.576-29.721c-9.389-3.738-19.154-6.729-29.057-8.895l-95.607-20.842c-3.486-5.174-6.18-11.202-8.859-17.441l-9.424-21.943c-7.195-16.752-32.278-11.708-32.563 6.396-.001.04-.001.08-.001.119v52.29c-.021 8.532 6.04 15.896 14.409 17.509.286.056 1.094.16 15.641 2.183-18.696 13.337-30.05 34.434-30.05 57.636v9.607c0 21.311 9.945 41.05 26.052 54.443h-5.257c-11.467.001-20.795 9.329-20.795 20.796s9.328 20.795 20.795 20.795h470.41c11.467 0 20.795-9.328 20.795-20.795 0-4.935-1.735-9.468-4.618-13.037 2.931-3.983 4.597-8.848 4.618-14.007zm-15-.059c-.01 2.538-1.101 4.884-2.939 6.528-2.727-.378-3.214-.149-11.736-.22 3.668-4.37 6.543-9.379 8.459-14.79 3.542 1.098 6.231 4.427 6.216 8.482zm-18.527-26.022c.745 14.318-7.998 27.449-21.375 32.33h-33.535c-.014-.006-.028-.011-.041-.017l16.695-16.337c1.012-.99 2.348-1.575 3.761-1.648 11.484-.598 20.295-10.375 19.699-21.861l-.975-18.738c8.988 5.429 15.184 14.981 15.771 26.271zm-44.131-30.37 9.86-.513c1.086-.057 2.167-.061 3.239-.013l1.256 24.141c.168 3.203-2.292 5.936-5.497 6.102-5.063.263-9.849 2.361-13.473 5.908l-18.517 18.12c-4.563-5.352-7.371-12.147-7.751-19.473-.453-8.701 2.51-17.059 8.343-23.531 5.833-6.474 13.838-10.289 22.54-10.741zm-42.182 14.027c-2.778 6.555-4.062 13.704-3.681 21.024.538 10.345 4.397 19.961 10.676 27.649h-13.153c.897-2.628 1.375-5.414 1.375-8.257 0-14.202-11.554-25.756-25.756-25.756-.282 0-.563.016-.844.048l-19.373 2.194c-4.116.466-7.075 4.181-6.608 8.296.467 4.116 4.194 7.066 8.296 6.608l18.897-2.141c5.761.195 10.388 4.942 10.388 10.75 0 3.257-1.441 6.229-3.906 8.257h-144.87c26.525-8.157 42.709-7.525 84.59-12.911 4.115-.466 7.074-4.181 6.607-8.297-.466-4.116-4.186-7.072-8.297-6.607l-24.176 2.739-41.085-15.33c-1.409-16.001 2.301-32.137 10.481-45.909l46.062.444c34.463 1.645 68.109 14.488 94.377 37.199zm-377.16-5.77v-9.607c0-5.991.975-11.805 2.802-17.291 14.026 5.306 36.448 10.09 60.519 10.09 13.798 0 35.615-2.045 53.809-7.696 2.111 4.588 3.24 9.581 3.268 14.603l.001 9.9c0 3.581-.371 7.104-1.06 10.539-17.409 5.182-40.205 7.524-56.018 7.524-18.41 0-45.046-3.064-62.659-9.748-.429-2.726-.662-5.502-.662-8.314zm135.399 0-.001-10.004c-.004-.673-.044-1.344-.075-2.016 6.077 5.204 9.634 9.251 11.672 11.304 16.576 17.229 42.153 28.097 64.767 28.097 2.195 0 4.362-.105 6.491-.314l16.433 6.132c-28.698 4.259-59.628 16.563-63.483 21.245h-61.855c16.107-13.395 26.051-33.133 26.051-54.444zm-7.121-70.854c9.075 1.984 18.053 4.733 26.648 8.156l66.75 26.963c-7.818 14.727-11.52 31.437-10.597 48.136-18.498-.126-39.506-9.206-53.276-23.518-2.143-1.869-17.519-20.896-47.048-33.779l-27.261-11.812c-3.8-1.646-8.217.101-9.863 3.9-1.646 3.801.1 8.217 3.9 9.863l18.602 8.06c-11.63 2.098-23.648 3.076-32.813 3.076-16.338 0-38.508-2.928-53.87-8.559 6.083-9.006 14.851-16.352 25.562-20.999l10.346 4.482c3.801 1.646 8.216-.101 9.863-3.9 1.646-3.801-.1-8.217-3.9-9.863l-15.208-6.589 4.808-12.357zm-128.278-16.064v-52.224c.073-1.944 2.938-2.643 3.78-.679l9.424 21.943c2.854 6.646 5.993 13.656 10.201 19.901.908 1.348 2.033 2.536 3.311 3.525l-5.05 12.982-19.55-2.716c-1.236-.299-2.119-1.422-2.116-2.732zm6.669 112.886c20.292 5.47 43.796 7.094 56.652 7.094 13.808 0 32.667-1.694 49.433-5.374-7.401 12.564-19.699 22.377-34.77 26.754h-35.57c-15.752-4.574-28.477-15.088-35.745-28.474zm469.536 55.065h-470.41c-3.195 0-5.795-2.6-5.795-5.795s2.6-5.795 5.795-5.795h470.41c3.195 0 5.795 2.6 5.795 5.795s-2.6 5.795-5.795 5.795z" fill="#cdad00" data-original="#000000" style=""/></g></g></svg>
