<?xml version="1.0"?>
<svg xmlns="http://www.w3.org/2000/svg" xmlns:xlink="http://www.w3.org/1999/xlink" xmlns:svgjs="http://svgjs.com/svgjs" version="1.1" width="512" height="512" x="0" y="0" viewBox="0 0 512 512" style="enable-background:new 0 0 512 512" xml:space="preserve" class=""><g>
<g xmlns="http://www.w3.org/2000/svg">
	<g>
		<path d="M256,0c-33.358,0-60,28.006-60,61c0,33.084,26.916,60,60,60s60-26.916,60-60C316,27.98,289.322,0,256,0z M256,91    c-16.542,0-30-13.458-30-30c0-16.804,13.738-31,30-31c16.262,0,30,14.196,30,31C286,77.542,272.542,91,256,91z" fill="#b7ac00" data-original="#000000" style="" class=""/>
	</g>
</g>
<g xmlns="http://www.w3.org/2000/svg">
	<g>
		<path d="M497,241c-8.284,0-15,6.716-15,15v45h-33.573v-0.001c5.686-16.092,1.799-34.409-10.609-46.816l-120-120    C309.316,125.682,298.017,121,286,121h-30h-30c-12.017,0-23.317,4.682-31.817,13.183l-120,120    c-12.407,12.407-16.294,30.723-10.608,46.815c0,0.001-0.001,0.002-0.001,0.003H30v-45c0-8.284-6.716-15-15-15s-15,6.716-15,15v120    C0,384.284,6.716,391,15,391s15-6.716,15-15v-45h33.559c1.233,3.472,2.903,6.815,4.999,9.961l59.993,89.989    c11.562,17.377,33.199,24.28,52.449,17.449V497c0,8.284,6.716,15,15,15h120c8.284,0,15-6.716,15-15v-48.55    c18.795,6.628,40.674,0.199,52.441-17.489l60.002-90.003c2.095-3.145,3.765-6.487,4.998-9.958H482v45c0,8.284,6.716,15,15,15    s15-6.716,15-15V256C512,247.716,505.284,241,497,241z M215.396,155.396c2.834-2.835,6.6-4.396,10.604-4.396h60    c4.004,0,7.77,1.561,10.604,4.396l116.072,116.072c-11.562-1.732-23.925,1.115-33.813,8.604l-52.256-52.256    c-9.405-9.41-25.606-2.748-25.606,10.606v22.955C289.997,248.896,273.908,241,256,241c-17.908,0-33.997,7.896-45,20.377v-22.955    c0-13.305-16.164-20.05-25.606-10.606l-52.261,52.261c-9.733-7.371-22.061-10.368-33.803-8.615L215.396,155.396z M360.097,303.732    l-21.089,31.633L331,327.36v-52.724L360.097,303.732z M286,301c0,16.542-13.458,30-30,30s-30-13.458-30-30s13.458-30,30-30    S286,284.458,286,301z M181,274.635v52.724l-8.008,8.005l-21.088-31.633L181,274.635z M418.48,324.319l-60.007,90.013    c-5.219,7.843-16.367,8.982-23.077,2.273l-8.789-8.789c-9.405-9.41-25.606-2.748-25.606,10.606V482h-90v-63.578    c0-13.304-16.164-20.05-25.606-10.606l-8.789,8.789c-6.674,6.675-17.829,5.615-23.084-2.284l-59.998-89.997    c-4.627-6.945-2.687-16.243,4.173-20.813c6.876-4.598,16.169-2.755,20.785,4.17c4.615,6.923,32.718,49.078,39.697,59.546    c5.238,7.857,16.383,8.988,23.085,2.289l29.35-29.338C221.624,352.915,237.88,361,256,361s34.376-8.085,45.387-20.824    l29.35,29.338c6.705,6.702,17.851,5.563,23.085-2.289c6.948-10.421,35.316-52.973,39.704-59.555    c4.586-6.89,13.851-8.781,20.797-4.149C421.201,308.103,423.081,317.414,418.48,324.319z" fill="#b7ac00" data-original="#000000" style="" class=""/>
	</g>
</g>
<g xmlns="http://www.w3.org/2000/svg">
</g>
<g xmlns="http://www.w3.org/2000/svg">
</g>
<g xmlns="http://www.w3.org/2000/svg">
</g>
<g xmlns="http://www.w3.org/2000/svg">
</g>
<g xmlns="http://www.w3.org/2000/svg">
</g>
<g xmlns="http://www.w3.org/2000/svg">
</g>
<g xmlns="http://www.w3.org/2000/svg">
</g>
<g xmlns="http://www.w3.org/2000/svg">
</g>
<g xmlns="http://www.w3.org/2000/svg">
</g>
<g xmlns="http://www.w3.org/2000/svg">
</g>
<g xmlns="http://www.w3.org/2000/svg">
</g>
<g xmlns="http://www.w3.org/2000/svg">
</g>
<g xmlns="http://www.w3.org/2000/svg">
</g>
<g xmlns="http://www.w3.org/2000/svg">
</g>
<g xmlns="http://www.w3.org/2000/svg">
</g>
</g></svg>
