<?xml version="1.0"?>
<svg xmlns="http://www.w3.org/2000/svg" xmlns:xlink="http://www.w3.org/1999/xlink" xmlns:svgjs="http://svgjs.com/svgjs" version="1.1" width="512" height="512" x="0" y="0" viewBox="0 0 256 256" style="enable-background:new 0 0 512 512" xml:space="preserve" class=""><g><path xmlns="http://www.w3.org/2000/svg" d="m177.831 71.759-4.527-7.398c-1.96-3.202-4.591-5.827-7.609-7.591-1.496-.875-3.512-1.89-5.894-2.105l-12.296-2.312v-7.264c3.999-4.299 6.615-11.124 6.615-17.17 0-5.274-2.05-9.998-5.272-13.202.066-.346.119-.718.119-1.112 0-5.523-4.493-10.017-10.017-10.017-5.522 0-10.016 4.493-10.016 10.017 0 .416.055.779.125 1.105-3.225 3.204-5.278 7.932-5.278 13.209 0 5.741 2.36 12.184 6.021 16.501l.096 7.922-12.408 2.331c-.007.001-.013.004-.02.006-1.898.181-3.911.875-5.994 2.092-3.021 1.765-5.651 4.39-7.609 7.591l-4.528 7.398c-2.712 4.433-4.765 10.791-6.476 16.403-.394 1.292-.169 2.664.617 3.763.786 1.098 2.012 1.754 3.361 1.798.056.003.112.001.168-.002l22.111-1.138.351 1.305c1.185 7.213.631 14.701-1.618 21.706-.803 2.51-2.428 4.734-4.574 6.264l-8.306 5.92-3.686 1.812c-7.809 3.84-14.707 9.078-20.505 15.569l-6.527 7.306c-1.453 1.627-2.254 3.724-2.254 5.905 0 3.438 2.015 6.593 5.131 8.039l1.439.67c1.34.621 2.837.902 4.305.806 4.127-.267 8.235-.979 12.21-2.118l33.55-9.615 4.615 10.278v3.125c0 1.181.492 2.322 1.351 3.132.726.686 1.677 1.079 2.667 1.148l.966 11.551-1.45 7.253c-.845 4.225-1.376 8.549-1.58 12.854l-.932 19.756-3.322 6.883c-.112.232-.179.483-.195.741l-1.113 17.371c-.07 1.099.321 2.189 1.074 2.993.753.803 1.816 1.264 2.917 1.264h5.54c1.068 0 2.072-.416 2.828-1.172l3.602-3.602c1.251-1.25 1.529-3.206.677-4.757l-1.822-3.313-.679-7.928 7.051-21.936c1.237-3.853 2.254-7.814 3.02-11.774l3.366-17.39c.012-.063.021-.128.027-.192l4.699-49.888c.004-.038.006-.075.008-.113.213-5.74-.568-11.422-2.322-16.888-2.243-6.991-2.792-14.515-1.587-21.757l.2-1.199 21.922 1.128c.034.002.068.003.103.003.021 0 .044 0 .065-.001 1.351-.044 2.576-.7 3.362-1.799s1.011-2.47.617-3.762c-1.714-5.612-3.768-11.972-6.48-16.403zm-17.161 6.216 2.342 1.633c-.849.144-1.708.214-2.573.188l-.071-.002zm-3.037-6.117-1.299 7.813-8.238-.25-4.484-17.936c1.8-1.209 3.075-3.025 3.603-5.118l10.275 1.933zm-33.695 33.236h29.616c.237 3.213.794 6.4 1.638 9.51h-32.892c.844-3.11 1.402-6.297 1.638-9.51zm30.156-11.958c-.438 2.629-.643 5.293-.657 7.958h-29.38c-.014-2.665-.22-5.329-.657-7.958-.011-.064-.024-.129-.041-.191l-.264-.982 11.399-2.769c.334-.081.641-.246.892-.479l3.199-2.98 3.2 2.98c.251.233.558.398.892.479l11.605 2.819zm-15.145-78.678c4.039 0 7.574 2.605 9.536 6.487-2.618-2.283-5.935-3.615-9.536-3.615-3.669 0-7.107 1.542-9.786 4.113 1.903-4.16 5.575-6.985 9.786-6.985zm0 6.871c5.242 0 9.686 3.958 10.914 9.658-1.118 6.996-5.768 14.399-10.914 14.399-5.055 0-9.631-7.147-10.85-14.033 1.259-5.826 5.773-10.024 10.85-10.024zm0 28.057c1.588 0 3.118-.421 4.555-1.167v5.989c0 1.219-.455 2.356-1.237 3.219-.362-.342-.844-.552-1.37-.552h-4.626c-.454 0-.879.154-1.22.416-.714-.851-1.132-1.943-1.132-3.108l-.076-6.272c1.595.936 3.313 1.475 5.106 1.475zm0-41.799c2.674 0 4.943 1.754 5.724 4.172-1.768-.833-3.699-1.301-5.724-1.301s-3.955.468-5.723 1.3c.781-2.417 3.05-4.171 5.723-4.171zm-19.091 50.71 10.348-1.944c.507 2.003 1.706 3.767 3.39 4.979l-4.522 18.09-7.916.24-1.299-7.814v-13.551zm-2.734 21.487-.393.012c-.865.027-1.726-.043-2.575-.188l2.633-1.836zm-20.2 9.936c-.078-.014-.143-.055-.192-.123-.059-.082-.073-.173-.044-.269 1.185-3.884 3.389-11.112 6.062-15.481l4.528-7.398c1.614-2.641 3.764-4.793 6.215-6.226.821-.48 1.612-.854 2.366-1.119v12.909c0 .11.009.22.027.328l.177 1.062-6.813 4.75-2.38-.785-1.253 3.799 5.392 1.778c1.887.623 3.857.901 5.844.849l13.855-.42c.895-.027 1.663-.646 1.88-1.514l3.997-15.989v16.258l-3.543 3.3-12.701 3.086zm34.65 63.211c-.407-.907-1.423-1.379-2.375-1.104l-35.216 10.093c-.504.145-1.016.263-1.525.393 1.204-3.935 4.418-9.111 6.089-11.533 5.328-2.455 10.989-3.967 16.872-4.486l14.757-1.302c.283-.024.558-.109.805-.249l3.347-1.883c1.32-.743 2.954-.629 4.159.289 1.047.796 1.6 2.053 1.48 3.363l-2.102 23.069c-.014.153-.136.271-.288.279-.112.018-.187-.042-.23-.084-.044-.041-.097-.114-.097-.224v-3.552c0-.282-.06-.562-.176-.819zm15.446 57.639-7.174 22.317c-.081.253-.111.519-.089.783l.75 8.75c.024.278.106.549.241.793l2.025 3.685-3.602 3.602h-5.539l1.088-16.982 3.33-6.898c.117-.242.185-.506.197-.775l.951-20.163c.193-4.105.7-8.23 1.506-12.258l.266-1.329c2.988 1.71 6.35 2.653 9.804 2.748l-.855 4.418c-.734 3.802-1.71 7.608-2.899 11.309zm10.933-78.339-4.686 49.734-1.719 8.882c-3.482.044-6.872-.985-9.739-2.946l.402-2.009c.037-.185.048-.372.032-.56l-1.118-13.367c.394-.585.656-1.27.725-2.021l2.102-23.069c.244-2.691-.894-5.274-3.042-6.908-.823-.627-1.748-1.053-2.709-1.311l-1.07-5.536-3.928.76.925 4.789c-.605.166-1.199.389-1.762.705l-2.972 1.672-14.327 1.264c-7.397.653-14.473 2.75-21.03 6.233l-6.476 3.44 1.877 3.533 2.22-1.18c-1.541 2.811-3.03 6.091-3.503 8.902-1.834.311-3.684.533-5.538.652-.811.053-1.628-.102-2.362-.441l-1.44-.67c-1.71-.794-2.815-2.525-2.815-4.411 0-1.197.439-2.348 1.236-3.24l6.527-7.307c5.454-6.104 11.943-11.032 19.288-14.644l3.831-1.884c.097-.048.189-.104.278-.166l8.438-6.014c2.314-1.649 4.158-3.914 5.351-6.512h35.412c1.222 4.439 1.758 9.014 1.592 13.63zm22.485-42.634c-.05.068-.114.109-.193.123l-23.415-1.204-12.701-3.086-3.544-3.301v-16.262l3.998 15.993c.217.868.985 1.486 1.88 1.514l13.855.42c.173.005.346.008.519.008 1.813 0 3.602-.287 5.325-.856l5.392-1.778-1.253-3.799-2.38.785-6.522-4.549.21-1.264c.02-.115.028-.232.027-.35l-.135-12.837c.667.257 1.378.601 2.177 1.068 2.45 1.432 4.599 3.585 6.215 6.226l4.527 7.398c2.674 4.369 4.878 11.598 6.063 15.481.028.097.013.188-.045.27z" fill="#a9a010" data-original="#000000" style="" class=""/></g></svg>
